<?xml version="1.0" encoding="UTF-8" standalone="no"?><!DOCTYPE svg PUBLIC "-//W3C//DTD SVG 1.1//EN" "http://www.w3.org/Graphics/SVG/1.1/DTD/svg11.dtd"><svg width="100%" height="100%" viewBox="0 0 256 256" version="1.1" xmlns="http://www.w3.org/2000/svg" xmlns:xlink="http://www.w3.org/1999/xlink" xml:space="preserve" xmlns:serif="http://www.serif.com/" style="fill-rule:evenodd;clip-rule:evenodd;stroke-linecap:round;stroke-linejoin:round;stroke-miterlimit:1.5;"><path d="M245.413,63.542l-1.285,122.939l-98.615,58.116l-102.638,-59.564l1.288,-122.102l98.497,-60.043l102.753,60.654Z" style="fill:url(#_Linear1);"/><g id="Layer1"><path d="M42.509,61.934l0.029,125.262l102.919,52.43l99.019,-53.945" style="fill:none;stroke:#000;stroke-width:14px;"/><path d="M182.704,142.028l-36.674,18.77c0,0 -97.129,-54.192 -116.457,-62.247c-12.044,-5.019 -20.025,0.709 -22.414,6.889c-1.418,3.668 -3.287,14.095 7.625,22.24c8.894,6.638 25.908,14.596 28.687,16.117c11.227,6.143 61.061,30.952 61.061,30.952" style="fill:none;stroke:#000;stroke-width:12px;"/><path d="M142.194,7.115l102.49,54.76l-99.903,54.452l-102.319,-55.111l99.732,-54.101Z" style="fill:none;stroke:#000;stroke-width:14px;"/><path d="M144.496,118.451l1.18,118.738" style="fill:none;stroke:#000;stroke-width:14px;"/><path d="M227.642,154.18l22.945,-12.296" style="fill:none;stroke:#000;stroke-width:12px;"/><path d="M125.254,184.767l20.996,10.567l58.855,-30.206" style="fill:none;stroke:#000;stroke-width:12px;"/><path d="M234.973,116.893c0.137,0 15.284,-9.291 15.284,-9.291" style="fill:none;stroke:#000;stroke-width:12px;"/></g><defs><linearGradient id="_Linear1" x1="0" y1="0" x2="1" y2="0" gradientUnits="userSpaceOnUse" gradientTransform="matrix(1.3412,174.354,-174.354,1.3412,145.23,28.9209)"><stop offset="0" style="stop-color:#ff9c00;stop-opacity:0.78"/><stop offset="1" style="stop-color:#8a048f;stop-opacity:0.8"/></linearGradient></defs></svg>