<?xml version="1.0" encoding="UTF-8" standalone="no"?><!DOCTYPE svg PUBLIC "-//W3C//DTD SVG 1.1//EN" "http://www.w3.org/Graphics/SVG/1.1/DTD/svg11.dtd"><svg width="100%" height="100%" viewBox="0 0 256 256" version="1.1" xmlns="http://www.w3.org/2000/svg" xmlns:xlink="http://www.w3.org/1999/xlink" xml:space="preserve" xmlns:serif="http://www.serif.com/" style="fill-rule:evenodd;clip-rule:evenodd;stroke-linecap:round;stroke-linejoin:round;stroke-miterlimit:1.5;"><path d="M215.913,80.799l-1.073,102.598l-82.298,48.5l-85.655,-49.709l1.074,-101.899l82.2,-50.108l85.752,50.618Z" style="fill:url(#_Linear1);"/><g id="Layer1"><path d="M46.582,79.457l0.023,104.536l85.891,43.755l82.635,-45.019" style="fill:none;stroke:#000;stroke-width:14px;"/><path d="M163.579,146.299l-30.605,15.664c-0,0 -81.058,-45.225 -97.189,-51.947c-10.051,-4.189 -16.711,0.591 -18.705,5.749c-1.183,3.061 -2.743,11.762 6.364,18.56c7.422,5.54 21.621,12.181 23.94,13.45c9.369,5.126 50.958,25.831 50.958,25.831" style="fill:none;stroke:#000;stroke-width:12px;"/><path d="M129.772,33.708l85.532,45.7l-83.373,45.442l-85.389,-45.992l83.23,-45.15Z" style="fill:none;stroke:#000;stroke-width:14px;"/><path d="M131.694,126.623l0.984,99.091" style="fill:none;stroke:#000;stroke-width:14px;"/><path d="M201.082,156.44l19.148,-10.261" style="fill:none;stroke:#000;stroke-width:12px;"/><path d="M115.635,181.966l17.522,8.819l49.117,-25.209" style="fill:none;stroke:#000;stroke-width:12px;"/><path d="M207.2,125.323c0.114,0 12.756,-7.754 12.756,-7.754" style="fill:none;stroke:#000;stroke-width:12px;"/><path d="M238.73,107.853l0.297,-0.199" style="fill:none;stroke:#000;stroke-width:12px;"/><path d="M238.73,135.777l0.297,-0.199" style="fill:none;stroke:#000;stroke-width:12px;"/></g><defs><linearGradient id="_Linear1" x1="0" y1="0" x2="1" y2="0" gradientUnits="userSpaceOnUse" gradientTransform="matrix(1.11928,145.506,-145.506,1.11928,132.306,51.9065)"><stop offset="0" style="stop-color:#ff9c00;stop-opacity:0.78"/><stop offset="1" style="stop-color:#8a048f;stop-opacity:0.8"/></linearGradient></defs></svg>